<svg role="img" viewBox="0 0 24 24" fill="#ffffff" xmlns="http://www.w3.org/2000/svg">
  <title>GitHub</title>
  <path d="M12 0C5.37 0 0 5.37 0 12c0 5.3 3.438 9.8 8.207 11.387.6.113.793-.263.793-.58v-2.27c-3.338.725-4.037-1.61-4.037-1.61-.544-1.387-1.33-1.756-1.33-1.756-1.087-.744.082-.729.082-.729 1.205.087 1.84 1.238 1.84 1.238 1.07 1.835 2.807 1.305 3.492.998.106-.775.42-1.305.764-1.605-2.665-.3-5.467-1.332-5.467-5.93 0-1.31.465-2.38 1.235-3.22-.123-.302-.535-1.517.117-3.163 0 0 1.008-.322 3.3 1.23a11.46 11.46 0 0 1 3-.403c1.018.006 2.047.137 3 .403 2.29-1.552 3.296-1.23 3.296-1.23.654 1.646.242 2.86.12 3.163.772.84 1.234 1.91 1.234 3.22 0 4.61-2.807 5.625-5.48 5.92.43.37.81 1.1.81 2.22v3.293c0 .32.19.698.8.58C20.565 21.796 24 17.3 24 12c0-6.63-5.37-12-12-12z"/>
</svg>
